# xmcd
#
# Track frame offsets:
#	150
#	20405
#	42105
#	64302
#	86194
#	100756
#	122599
#	139887
#	180969
#	199660
#	221852
#
# Disc length: 3245 seconds
#
# Revision: 0
# Processed by: cddbd v1.5.1PL2 Copyright (c) Steve Scherf et al.
# Submitted via: audiograbber 1.83.01
#
DISCID=9a0cab0b
DTITLE=Ira - On The Road To The Unknown
DYEAR=2006
DGENRE=Hard Rock
TTITLE0=Andaluzia
TTITLE1=Nights In Bagdad
TTITLE2=All I've Got
TTITLE3=Neverland
TTITLE4=On The Road
TTITLE5=Died In 1709
TTITLE6=Have On You (Hang On Yourself)
TTITLE7=Budapeste
TTITLE8=Forever
TTITLE9=Tiro À Sorte
TTITLE10=Quando Vier O Sol
EXTD=
EXTT0=
EXTT1=
EXTT2=
EXTT3=
EXTT4=
EXTT5=
EXTT6=
EXTT7=
EXTT8=
EXTT9=
EXTT10=
PLAYORDER=
